<svg xmlns="http://www.w3.org/2000/svg" x="0px" y="0px"
width="64" height="64"
viewBox="0 0 172 172"
style=" fill:#000000;"><g fill="none" fill-rule="nonzero" stroke="none" stroke-width="1" stroke-linecap="butt" stroke-linejoin="miter" stroke-miterlimit="10" stroke-dasharray="" stroke-dashoffset="0" font-family="none" font-weight="none" font-size="none" text-anchor="none" style="mix-blend-mode: normal"><path d="M0,172v-172h172v172z" fill="none"></path><g fill="#ffffff"><path d="M84.68249,1.32538c-0.36323,0.0021 -0.73276,0.05144 -1.10229,0.15222c-1.47813,0.40312 -2.5526,1.61407 -2.82135,2.95782l-29.96405,133.4328c-1.74687,8.0625 0.13228,16.2599 5.23853,22.7099c0.5375,0.67188 1.21042,1.34375 1.74792,2.01563h-39.37292c-3.49375,0 -6.31458,-2.82083 -6.31458,-6.31458c0,-1.88125 0.8073,-3.76407 2.4198,-4.97345c1.6125,-1.20937 3.49375,-1.61302 5.375,-1.2099l15.98853,3.76355c2.15,0.5375 4.3021,-0.8052 4.8396,-2.9552c0.5375,-2.15 -0.80782,-4.3021 -2.95782,-4.8396l-15.99115,-3.76093c-4.3,-0.94063 -8.73385,-0.00052 -12.2276,2.82135c-3.49375,2.6875 -5.375,6.85365 -5.375,11.28802c-0.13437,7.79375 6.3151,14.24323 14.24323,14.24323h58.45313h2.4198c2.28437,0 4.03125,-1.74687 4.03125,-4.03125c0,-2.28438 -1.74688,-4.03125 -4.03125,-4.03125h-2.4198c-5.77813,0 -11.15103,-2.55417 -14.64478,-7.12292c-3.62813,-4.43437 -4.97345,-10.21093 -3.6297,-15.85468l28.3526,-126.3125l0.67188,0.67188c5.64375,5.77812 13.1698,8.86822 21.2323,8.86822c8.0625,0 15.58855,-3.09062 21.2323,-8.73437l0.67188,-0.67187l28.3526,126.3125c1.20937,5.64375 -0.13595,11.42292 -3.6297,15.8573c-3.62813,4.43437 -9.00103,7.1203 -14.64478,7.1203h-1.07605c-2.28438,0 -4.03125,1.74687 -4.03125,4.03125c0,2.28438 1.74687,4.03125 4.03125,4.03125h1.07605c8.19688,0 15.85573,-3.62813 20.96198,-10.07812c5.10625,-6.45 6.98802,-14.6474 5.24115,-22.7099l-30.10052,-133.56665c-0.26875,-1.47812 -1.34323,-2.5547 -2.82135,-2.95782c-1.34375,-0.40313 -2.95625,0.00105 -4.03125,1.07605l-5.77917,5.77655c-4.03125,4.16563 -9.54062,6.45105 -15.45312,6.45105c-5.9125,0 -11.42187,-2.28542 -15.45312,-6.45105l-5.77917,-5.77655c-0.80625,-0.80625 -1.83926,-1.23457 -2.92896,-1.22827zM95.40625,41.65625c-2.2264,0 -4.03125,1.80485 -4.03125,4.03125c0,2.2264 1.80485,4.03125 4.03125,4.03125c2.2264,0 4.03125,-1.80485 4.03125,-4.03125c0,-2.2264 -1.80485,-4.03125 -4.03125,-4.03125zM122.28125,41.65625c-2.2264,0 -4.03125,1.80485 -4.03125,4.03125c0,2.2264 1.80485,4.03125 4.03125,4.03125c2.2264,0 4.03125,-1.80485 4.03125,-4.03125c0,-2.2264 -1.80485,-4.03125 -4.03125,-4.03125zM79.27863,95.43249c-0.26534,0.00656 -0.53435,0.04042 -0.8031,0.1076c-2.15,0.40313 -3.62865,2.55313 -3.22553,4.70313l12.09375,60.6026c1.075,5.64375 6.18178,9.81042 11.9599,9.81042h1.34375c3.09062,0 5.9125,-1.21042 8.0625,-3.09167c2.15,1.88125 4.97187,3.09167 8.0625,3.09167c5.77812,0 10.75052,-4.16667 11.9599,-9.81042l12.09375,-60.6026c0.40312,-2.15 -0.94115,-4.3 -3.22552,-4.70312c-2.15,-0.40312 -4.3,0.94115 -4.70312,3.22553l-12.09375,60.6026c-0.40313,1.88125 -2.01562,3.22552 -4.03125,3.22552c-2.28438,0 -4.03125,-1.88125 -4.03125,-4.03125v-45.6875c0,-2.28437 -1.74688,-4.03125 -4.03125,-4.03125c-2.28438,0 -4.03125,1.74688 -4.03125,4.03125v45.6875c0,2.28438 -1.88125,4.03125 -4.03125,4.03125h-1.34375c-1.88125,0 -3.62813,-1.34427 -4.03125,-3.22552l-12.09375,-60.6026c-0.35273,-1.99883 -2.04266,-3.37906 -3.90002,-3.33313z"></path></g></g></svg>